<svg width="269" height="72" viewBox="0 0 269 72" fill="none" xmlns="http://www.w3.org/2000/svg">
<path d="M88.2695 49H83.7773C83.6471 49 83.582 48.9349 83.582 48.8047L83.6602 21.3242C83.6602 21.2201 83.7122 21.168 83.8164 21.168H96.6289C96.7591 21.168 96.8242 21.2201 96.8242 21.3242V25.8359C96.8242 25.9401 96.7721 25.9922 96.668 25.9922H88.4648V32.2031H96.668C96.7721 32.2031 96.8242 32.2682 96.8242 32.3984L96.8633 36.9297C96.8633 37.0339 96.7982 37.0859 96.668 37.0859H88.4648V48.8047C88.4648 48.9349 88.3997 49 88.2695 49ZM105.145 49H100.613C100.483 49 100.418 48.9349 100.418 48.8047L100.457 21.3242C100.457 21.2201 100.509 21.168 100.613 21.168H105.105C105.21 21.168 105.262 21.2201 105.262 21.3242L105.301 48.8047C105.301 48.9349 105.249 49 105.145 49ZM117.352 49H112.84C112.723 49 112.664 48.9349 112.664 48.8047V25.9922H107.469C107.339 25.9922 107.273 25.9271 107.273 25.7969L107.312 21.3242C107.312 21.2201 107.365 21.168 107.469 21.168H122.664C122.807 21.168 122.879 21.2201 122.879 21.3242V25.7969C122.879 25.9271 122.827 25.9922 122.723 25.9922H117.469L117.508 48.8047C117.508 48.9349 117.456 49 117.352 49ZM137.918 49H124.988C124.884 49 124.832 48.9349 124.832 48.8047L124.871 21.3242C124.871 21.2201 124.923 21.168 125.027 21.168H137.879C137.983 21.168 138.035 21.2331 138.035 21.3633V25.8359C138.035 25.9401 137.983 25.9922 137.879 25.9922H129.676V32.2422H137.879C137.983 32.2422 138.035 32.2943 138.035 32.3984L138.074 36.9297C138.074 37.0339 138.022 37.0859 137.918 37.0859H129.676V44.0781H137.918C138.022 44.0781 138.074 44.1432 138.074 44.2734V48.8438C138.074 48.9479 138.022 49 137.918 49ZM208.719 49H201.551C201.447 49 201.395 48.9349 201.395 48.8047L201.473 21.3242C201.473 21.2201 201.525 21.168 201.629 21.168H209.324C210.822 21.168 212.182 21.5326 213.406 22.2617C214.604 22.9909 215.548 23.9609 216.238 25.1719C216.928 26.3698 217.273 27.6719 217.273 29.0781C217.273 30.224 217.013 31.2917 216.492 32.2812C215.971 33.2708 215.353 34.0716 214.637 34.6836C215.405 35.4518 216.004 36.3438 216.434 37.3594C216.863 38.375 217.078 39.4427 217.078 40.5625C217.078 42.112 216.707 43.5247 215.965 44.8008C215.21 46.0768 214.201 47.099 212.938 47.8672C211.674 48.6224 210.268 49 208.719 49ZM209.324 25.9141H206.277V32.2031H209.324C210.249 32.2031 210.997 31.8776 211.57 31.2266C212.143 30.5625 212.43 29.8464 212.43 29.0781C212.43 28.2318 212.124 27.4961 211.512 26.8711C210.9 26.2331 210.171 25.9141 209.324 25.9141ZM208.719 37.0469H206.277L206.238 44.1172H208.719C209.682 44.1172 210.509 43.7656 211.199 43.0625C211.889 42.3594 212.234 41.526 212.234 40.5625C212.234 39.599 211.889 38.7721 211.199 38.082C210.509 37.3919 209.682 37.0469 208.719 37.0469ZM233.035 49H220.105C220.001 49 219.949 48.9349 219.949 48.8047L219.988 21.3242C219.988 21.2201 220.04 21.168 220.145 21.168H232.996C233.1 21.168 233.152 21.2331 233.152 21.3633V25.8359C233.152 25.9401 233.1 25.9922 232.996 25.9922H224.793V32.2422H232.996C233.1 32.2422 233.152 32.2943 233.152 32.3984L233.191 36.9297C233.191 37.0339 233.139 37.0859 233.035 37.0859H224.793V44.0781H233.035C233.139 44.0781 233.191 44.1432 233.191 44.2734V48.8438C233.191 48.9479 233.139 49 233.035 49ZM245.281 49H240.77C240.652 49 240.594 48.9349 240.594 48.8047V25.9922H235.398C235.268 25.9922 235.203 25.9271 235.203 25.7969L235.242 21.3242C235.242 21.2201 235.294 21.168 235.398 21.168H250.594C250.737 21.168 250.809 21.2201 250.809 21.3242V25.7969C250.809 25.9271 250.757 25.9922 250.652 25.9922H245.398L245.438 48.8047C245.438 48.9349 245.385 49 245.281 49ZM259.559 49.3906C258.139 49.3906 256.831 49.026 255.633 48.2969C254.448 47.5677 253.497 46.5977 252.781 45.3867C252.078 44.1628 251.727 42.8216 251.727 41.3633V39.5273C251.727 39.3841 251.792 39.3125 251.922 39.3125H256.414C256.518 39.3125 256.57 39.3841 256.57 39.5273V41.3633C256.57 42.2357 256.863 42.9909 257.449 43.6289C258.035 44.2539 258.738 44.5664 259.559 44.5664C260.392 44.5664 261.102 44.2474 261.688 43.6094C262.273 42.9583 262.566 42.2096 262.566 41.3633C262.566 40.3867 261.928 39.5339 260.652 38.8047C260.444 38.6745 260.171 38.5182 259.832 38.3359C259.507 38.1406 259.116 37.9193 258.66 37.6719C258.204 37.4245 257.762 37.1836 257.332 36.9492C256.902 36.7018 256.486 36.4674 256.082 36.2461C254.624 35.3867 253.536 34.3125 252.82 33.0234C252.117 31.7214 251.766 30.263 251.766 28.6484C251.766 27.1641 252.13 25.8229 252.859 24.625C253.589 23.4401 254.539 22.5026 255.711 21.8125C256.896 21.1094 258.178 20.7578 259.559 20.7578C260.978 20.7578 262.28 21.1094 263.465 21.8125C264.65 22.5286 265.594 23.4792 266.297 24.6641C267.013 25.849 267.371 27.1771 267.371 28.6484V31.9297C267.371 32.0339 267.319 32.0859 267.215 32.0859H262.723C262.618 32.0859 262.566 32.0339 262.566 31.9297L262.527 28.6484C262.527 27.7109 262.234 26.9492 261.648 26.3633C261.062 25.7773 260.366 25.4844 259.559 25.4844C258.738 25.4844 258.035 25.7969 257.449 26.4219C256.863 27.0469 256.57 27.7891 256.57 28.6484C256.57 29.5208 256.753 30.25 257.117 30.8359C257.495 31.4219 258.178 31.9818 259.168 32.5156C259.272 32.5677 259.513 32.6979 259.891 32.9062C260.268 33.1146 260.685 33.349 261.141 33.6094C261.609 33.8568 262.033 34.0846 262.41 34.293C262.788 34.4883 263.016 34.6055 263.094 34.6445C264.422 35.3867 265.47 36.2982 266.238 37.3789C267.02 38.4596 267.41 39.7878 267.41 41.3633C267.41 42.8867 267.059 44.2539 266.355 45.4648C265.639 46.6758 264.689 47.6328 263.504 48.3359C262.319 49.0391 261.004 49.3906 259.559 49.3906Z" fill="#FF0000"/>
<path d="M145.984 49H141.98C141.772 49 141.668 48.9089 141.668 48.7266L141.629 21.4805C141.629 21.2721 141.733 21.168 141.941 21.168H145.555L152.312 36.9297L152.117 21.4805C152.117 21.2721 152.234 21.168 152.469 21.168H156.434C156.59 21.168 156.668 21.2721 156.668 21.4805L156.707 48.7656C156.707 48.9219 156.642 49 156.512 49H152.996L146.062 34.2734L146.355 48.6875C146.355 48.8958 146.232 49 145.984 49ZM164.91 49H160.379C160.249 49 160.184 48.9349 160.184 48.8047L160.223 21.3242C160.223 21.2201 160.275 21.168 160.379 21.168H164.871C164.975 21.168 165.027 21.2201 165.027 21.3242L165.066 48.8047C165.066 48.9349 165.014 49 164.91 49ZM177.117 49H172.605C172.488 49 172.43 48.9349 172.43 48.8047V25.9922H167.234C167.104 25.9922 167.039 25.9271 167.039 25.7969L167.078 21.3242C167.078 21.2201 167.13 21.168 167.234 21.168H182.43C182.573 21.168 182.645 21.2201 182.645 21.3242V25.7969C182.645 25.9271 182.592 25.9922 182.488 25.9922H177.234L177.273 48.8047C177.273 48.9349 177.221 49 177.117 49ZM197.684 49H184.754C184.65 49 184.598 48.9349 184.598 48.8047L184.637 21.3242C184.637 21.2201 184.689 21.168 184.793 21.168H197.645C197.749 21.168 197.801 21.2331 197.801 21.3633V25.8359C197.801 25.9401 197.749 25.9922 197.645 25.9922H189.441V32.2422H197.645C197.749 32.2422 197.801 32.2943 197.801 32.3984L197.84 36.9297C197.84 37.0339 197.788 37.0859 197.684 37.0859H189.441V44.0781H197.684C197.788 44.0781 197.84 44.1432 197.84 44.2734V48.8438C197.84 48.9479 197.788 49 197.684 49Z" fill="white"/>
<path d="M53.0416 48.6665V20.7498H61.4166V48.6665H53.0416ZM33.4999 15.1665C22.3333 15.1665 19.5416 15.1665 19.5416 15.1665C19.5416 15.1665 5.58325 15.1665 5.58325 26.3332V43.0832C5.58325 48.0244 8.37492 50.7882 11.362 52.3236C12.2833 47.0753 16.8337 43.0832 22.3333 43.0832H30.7083V48.6665H22.3333C20.8525 48.6665 19.4323 49.2547 18.3852 50.3018C17.3382 51.3489 16.7499 52.769 16.7499 54.2498C16.7499 57.3486 19.2624 59.8332 22.3333 59.8332H36.2916C47.4583 59.8332 47.4583 48.6665 47.4583 48.6665V20.7498C47.4583 20.7498 44.6666 15.1665 33.4999 15.1665Z" fill="white"/>
</svg>
